<svg width="38" height="53" viewBox="0 0 38 53" fill="none" xmlns="http://www.w3.org/2000/svg">
<rect width="38" height="53" fill="none"/>
<path d="M21.5 9C14.0429 9 8 15.11 8 22.65C8 25.5967 8.94286 28.9767 10.5286 31.23L21.5 48L32.4714 31.23C34.0571 28.9767 35 25.64 35 22.65C35 15.11 28.9571 9 21.5 9ZM21.5 27.85C18.6714 27.85 16.3571 25.51 16.3571 22.65C16.3571 19.79 18.6714 17.45 21.5 17.45C24.3286 17.45 26.6429 19.79 26.6429 22.65C26.6429 25.51 24.3286 27.85 21.5 27.85Z" fill="#F32020"/>
</svg>
