<svg width="34" height="36" viewBox="0 0 34 36" fill="none" xmlns="http://www.w3.org/2000/svg">
<rect width="34" height="36" fill="#F3E5E5"/>
<g clip-path="url(#clip0)">
<path d="M12.2417 28.4546H17.397C17.5344 28.4546 17.6719 28.3183 17.6719 28.1819C17.6719 28.0455 17.5344 27.9092 17.397 27.9092H12.2417C12.1043 27.9092 11.9668 28.0455 11.9668 28.1819C11.9668 28.3865 12.1043 28.4546 12.2417 28.4546Z" fill="black"/>
<path d="M18.428 32.4092H16.0223C15.8848 32.4092 15.7473 32.5455 15.7473 32.6819C15.7473 32.8183 15.8848 32.9546 16.0223 32.9546H18.428C18.5655 32.9546 18.703 32.8183 18.703 32.6819C18.703 32.4774 18.6342 32.4092 18.428 32.4092Z" fill="black"/>
<path d="M12.2417 23.9546H15.3349C15.4723 23.9546 15.6098 23.8183 15.6098 23.6819C15.6098 23.5455 15.4723 23.4092 15.3349 23.4092H12.2417C12.1043 23.4092 11.9668 23.5455 11.9668 23.6819C11.9668 23.8183 12.1043 23.9546 12.2417 23.9546Z" fill="black"/>
<path d="M12.2417 19.9319H22.2772C22.4147 19.9319 22.5522 19.7956 22.5522 19.6592C22.5522 19.5228 22.4147 19.3865 22.2772 19.3865H12.2417C12.1043 19.3865 11.9668 19.5228 11.9668 19.6592C11.9668 19.7956 12.1043 19.9319 12.2417 19.9319Z" fill="black"/>
<path d="M12.2417 21.6363H22.2772C22.4147 21.6363 22.5522 21.4999 22.5522 21.3635C22.5522 21.2272 22.4147 21.0908 22.2772 21.0908H12.2417C12.1043 21.0908 11.9668 21.2272 11.9668 21.3635C11.9668 21.4999 12.1043 21.6363 12.2417 21.6363Z" fill="black"/>
<path d="M12.2417 23.3409H22.2772C22.4147 23.3409 22.5522 23.2045 22.5522 23.0681C22.5522 22.9318 22.4147 22.7954 22.2772 22.7954H12.2417C12.1043 22.7954 11.9668 22.9318 11.9668 23.0681C11.9668 23.2045 12.1043 23.3409 12.2417 23.3409Z" fill="black"/>
<path d="M12.2417 25.0455H22.2772C22.4147 25.0455 22.5522 24.9091 22.5522 24.7727C22.5522 24.6364 22.4147 24.5 22.2772 24.5H12.2417C12.1043 24.5 11.9668 24.6364 11.9668 24.7727C11.9668 24.9091 12.1043 25.0455 12.2417 25.0455Z" fill="black"/>
<path d="M12.2417 26.75H22.2772C22.4147 26.75 22.5522 26.6137 22.5522 26.4773C22.5522 26.341 22.4147 26.2046 22.2772 26.2046H12.2417C12.1043 26.2046 11.9668 26.341 11.9668 26.4773C11.9668 26.6137 12.1043 26.75 12.2417 26.75Z" fill="black"/>
<path d="M24.7515 31.0454H21.7272C21.4522 31.0454 21.246 31.2499 21.246 31.5226V34.5226H9.76706V13.4545H24.7515V31.0454ZM24.3391 31.5908L21.7959 34.1135V31.5908H24.3391ZM10.5919 34.9999H21.5209C21.5897 34.9999 21.6584 34.9999 21.7272 34.9317L25.164 31.5226C25.2327 31.4545 25.2327 31.3863 25.2327 31.3181V14.2726V13.7272V13.3181C25.2327 13.0454 25.0265 12.8408 24.7515 12.8408H9.62959C9.35465 12.8408 9.14844 13.0454 9.14844 13.3181V34.5226C9.14844 34.7954 9.35465 34.9999 9.62959 34.9999H10.042H10.5919Z" fill="black"/>
<path d="M29.8382 28.1818H26.1264L25.2329 25.4546H9.21734L8.1863 28.1818H5.09317C3.64972 28.1818 2.4812 27.0227 2.4812 25.5909V8.0682C2.4812 6.63639 3.64972 5.47729 5.09317 5.47729H29.8382C31.2816 5.47729 32.4502 6.63639 32.4502 8.0682V25.5227C32.5189 27.0227 31.2816 28.1818 29.8382 28.1818Z" fill="#F3E5E5" stroke="black" stroke-width="1.4" stroke-miterlimit="10"/>
</g>
<defs>
<clipPath id="clip0">
<rect width="31" height="30" fill="#F3E5E5" transform="translate(2 5)"/>
</clipPath>
</defs>
</svg>
