<svg width="34" height="39" viewBox="0 0 34 39" fill="none" xmlns="http://www.w3.org/2000/svg">
<rect width="34" height="39" fill="none"/>
<path d="M10.1513 9.97998C11.0977 11.4543 12.0346 12.9098 12.9526 14.3841C13.2649 14.8756 13.246 15.3859 12.9147 15.8774C12.6308 16.3027 12.3469 16.728 12.063 17.1532C11.7034 17.6825 11.6939 18.2118 12.0441 18.7599C13.4069 20.8864 15.1576 22.6348 17.2964 23.9863C17.8075 24.3076 18.3091 24.2982 18.8012 23.9768C19.2365 23.6933 19.6718 23.4098 20.0977 23.1168C20.6371 22.7482 21.1766 22.7671 21.716 23.1073C23.0977 23.9863 24.4794 24.8652 25.8611 25.7442C25.9841 25.8198 26.022 25.8859 25.9747 26.0466C25.6245 27.0673 25.2933 28.088 24.9431 29.1087C24.5646 30.1956 23.817 30.8666 22.6529 30.9894C22.2933 31.0272 21.8958 30.9611 21.5457 30.8477C19.1419 30.0727 16.9463 28.8819 14.9211 27.3792C11.8264 25.0731 9.23336 22.304 7.22705 19.0151C6.35639 17.5407 5.65607 16.0097 5.13557 14.403C4.69077 13.0421 5.37216 11.6244 6.71601 11.1424C7.84219 10.7361 8.9873 10.3675 10.1513 9.97998Z" fill="black"/>
</svg>
