<svg width="62" height="62" viewBox="0 0 62 62" fill="none" xmlns="http://www.w3.org/2000/svg">
<rect width="62" height="62" fill="white"/>
<circle cx="31" cy="31" r="29.5" stroke="red"/>
<path d="M26.7171 14.0073C26.4128 14.0453 26.1465 14.2736 26.0704 14.5779C25.1193 18.3061 24.0541 20.5506 22.4563 22.1103C20.8966 23.6701 18.7282 24.6973 15.5706 25.8005C15.2283 25.8766 15 26.219 15 26.5613V31.8873C15 32.0775 15.0761 32.2297 15.1902 32.3818L28.6573 48.4358C28.9997 49.0065 29.3421 49.0825 29.8366 48.9304C37.0267 47.0282 42.2765 45.1642 44.6732 43.9848C45.0917 43.8327 45.0917 43.7566 45.0917 43.3001C45.0537 41.7403 45.1678 40.0664 45.0537 38.5067C45.358 38.2784 45.6623 38.0122 45.9286 37.7839C46.271 37.5176 46.271 36.947 45.9667 36.6426L44.1406 34.8166C44.5211 34.3601 44.9015 33.9416 45.2439 33.4851C45.4721 33.2188 45.4721 32.7623 45.2439 32.496L31.1681 16.1377C31.0159 15.9475 30.7496 15.8333 30.4833 15.8713C30.3312 15.9094 30.179 15.9855 30.0649 16.0996L29.3801 16.7844L27.3638 14.2736C27.2497 14.0834 26.9834 13.9692 26.7171 14.0073ZM27.1356 16.3659L39.994 32.3438C37.9016 36.7187 34.9724 40.3328 30.179 42.2349C25.8802 37.0991 21.4292 32.0014 17.0543 26.9037C19.7934 25.8765 21.8857 24.8494 23.5215 23.2136C25.1193 21.5777 26.2226 19.4093 27.1356 16.3659ZM30.5594 17.7735L43.6841 32.9905C39.7657 37.6317 35.543 42.349 30.217 43.9088V43.7946C35.8473 41.7403 39.3092 37.4415 41.5537 32.534C41.6679 32.2677 41.6298 31.9634 41.4396 31.7351L30.3312 17.9256L30.5594 17.7735ZM16.5217 28.6156L28.6953 42.8436V46.1913L16.5217 31.659V28.6156ZM43.1515 35.9959L44.2928 37.1372C41.2114 39.686 37.7875 42.1208 34.2115 43.8707C37.6353 41.9306 40.5266 39.0012 43.1515 35.9959ZM43.532 39.7241V42.7675C41.3255 43.8327 36.6462 45.5065 30.217 47.2565V47.0282C35.0485 45.6587 39.5755 42.8055 43.532 39.7241Z" fill="red"/>
</svg>
