<svg width="62" height="62" viewBox="0 0 62 62" fill="none" xmlns="http://www.w3.org/2000/svg">
<rect width="62" height="62" fill="white"/>
<circle cx="31" cy="31" r="29.5" stroke="red"/>
<path d="M35.4532 18C32.0596 18 29.3071 20.7903 29.3071 24.1838C29.3071 27.5773 32.0596 30.3676 35.4532 30.3676C42.9567 30.3676 47.8208 22.9018 47.8208 22.9018C48.0093 22.6001 47.9339 22.2231 47.6322 22.0346C47.4814 21.9215 47.2929 21.9214 47.1421 21.9591C44.9928 22.5247 43.7108 21.6952 42.0517 20.5263C40.355 19.4329 38.432 18 35.4532 18ZM35.4532 19.2443C38.0172 19.2443 39.6385 20.4509 41.2976 21.6198C42.6173 22.5248 44.1633 23.1658 45.9355 23.1658C44.9174 24.5232 41.2599 29.161 35.4532 29.161C33.1908 29.161 31.3055 27.6151 30.7399 25.4658C31.9088 25.8429 33.3793 25.8806 34.7368 25.8806C36.3958 25.8429 37.7909 25.692 37.7909 25.692C38.1303 25.6543 38.3565 25.3527 38.3188 25.0134C38.2811 24.674 37.9795 24.4478 37.6401 24.4855C37.6401 24.4855 36.2827 24.6363 34.6991 24.674C33.1154 24.7117 31.2678 24.4855 30.5514 24.0707C30.6645 21.3936 32.8137 19.2443 35.4532 19.2443ZM12.6033 27.615C12.2639 27.615 12 27.879 12 28.2184V40.8499C12 41.1893 12.2639 41.4532 12.6033 41.4532H15.9968H19.3904C19.7297 41.4532 19.9937 41.1893 19.9937 40.8499V39.945L31.5694 43.8664H31.6072C32.9646 44.2058 34.5105 44.0172 35.6794 43.2254L47.6699 36.7022L47.9716 36.5514C48.9897 35.9858 49.4044 34.7415 48.9519 33.6858C48.5749 32.7808 47.8208 32.366 47.2552 32.2906C46.6896 32.2152 46.1994 32.366 46.1994 32.366C46.1617 32.366 46.1617 32.366 46.124 32.4037L39.5254 35.4579C39.5254 35.3825 39.5631 35.3071 39.5631 35.194C39.5631 33.7989 38.3942 32.6677 36.9991 32.6677H31.494C31.4563 32.63 31.4563 32.5545 31.4186 32.5168C31.3055 32.3283 31.2301 32.1775 31.117 31.989C30.8907 31.6496 30.6268 31.348 30.3251 31.0463C29.1563 29.9152 27.5726 29.2364 25.8004 29.2364H19.9937V28.1806C19.9937 27.8413 19.7297 27.5773 19.3904 27.5773H15.9968H12.6033V27.615ZM13.2066 28.8594H15.9591H18.7494V40.2466H15.9591H13.2066V28.8594ZM19.9937 30.5184H25.8004C27.2332 30.5184 28.5153 31.084 29.4579 31.989C29.6841 32.2152 29.9104 32.4792 30.0989 32.7431C30.1743 32.8939 30.2874 33.007 30.3629 33.1579C30.476 33.3464 30.5137 33.4218 30.5891 33.5726L30.7399 33.9497H31.2678H36.9991C37.7532 33.9497 38.3188 34.5153 38.3188 35.2317C38.3188 35.7596 38.0172 36.212 37.5647 36.4006H37.527C37.3762 36.476 37.1876 36.5137 37.0368 36.5137H28.4021V37.758H37.0368C37.3008 37.758 37.527 37.7203 37.7532 37.6449C37.8287 37.6449 37.9041 37.6072 37.9795 37.5695L46.6142 33.5726C46.6142 33.5726 46.8404 33.4972 47.1043 33.5349C47.3683 33.5726 47.6322 33.648 47.8585 34.1759C48.047 34.6661 47.8962 35.194 47.406 35.4579L47.1043 35.6088L35.0761 42.1319L35.0384 42.1696C34.2089 42.7352 32.9646 42.886 31.9465 42.6598L20.0314 38.6252V30.5184H19.9937Z" fill="red"/>
</svg>
