<svg width="62" height="62" viewBox="0 0 62 62" fill="none" xmlns="http://www.w3.org/2000/svg">
<rect width="62" height="62" fill="white"/>
<circle cx="31" cy="31" r="29.5" stroke="red"/>
<path d="M38.2549 21.6449V22.1449H38.7549H45.7665C47.3234 22.1449 48.566 23.3876 48.566 24.9445V29.2523C48.566 29.5261 48.3316 29.7605 48.0578 29.7605H33.6182V29.4814C33.6182 28.8386 33.0735 28.294 32.4307 28.294H29.6353C28.9925 28.294 28.4479 28.8386 28.4479 29.4814V29.7605H14.0082C13.7344 29.7605 13.5 29.5261 13.5 29.2523V24.8987C13.5 23.3829 14.7014 22.1449 16.2537 22.1449H23.2653H23.7653V21.6449V19.9035C23.7653 17.4758 25.7411 15.5 28.1688 15.5H33.8514C36.2791 15.5 38.2549 17.4758 38.2549 19.9035V21.6449ZM35.0887 22.1449H35.5887V21.6449V19.9035C35.5887 18.94 34.8149 18.1662 33.8514 18.1662H28.1688C27.2053 18.1662 26.4315 18.94 26.4315 19.9035V21.6449V22.1449H26.9315H35.0887Z" stroke="red"/>
<path d="M31.0102 34.4726C32.14 34.4726 33.1698 33.739 33.4831 32.6853H46.5914C46.9257 32.6853 47.1455 32.9341 47.1455 33.1935V43.0005C47.1455 44.5575 45.9029 45.8001 44.3459 45.8001H17.7203C16.2046 45.8001 14.9666 44.5987 14.9666 43.0464V33.1935C14.9666 32.9197 15.201 32.6853 15.4748 32.6853H28.5947C28.9165 33.7137 29.8489 34.4726 31.0102 34.4726Z" stroke="red"/>
</svg>
