<svg width="62" height="62" viewBox="0 0 62 62" fill="none" xmlns="http://www.w3.org/2000/svg">
<rect width="62" height="62" fill="white"/>
<circle cx="31" cy="31" r="29.5" stroke="black"/>
<path d="M20.9536 36.5569C20.9536 41.4631 24.9369 45.4465 29.8431 45.4465C33.4422 45.4465 36.5589 43.2916 37.9626 40.1894L38.807 41.7005C36.9965 44.8199 33.6694 46.9 29.8431 46.9C24.1437 46.9 19.5 42.2563 19.5 36.5569C19.5 33.2839 21.0422 30.3311 23.4452 28.4412L23.7593 30.0844C22.0392 31.7097 20.9536 34.0157 20.9536 36.5569Z" stroke="black"/>
<path d="M45.5355 41.1614L45.5429 41.1577L45.5502 41.1539C45.9541 40.94 46.4965 41.085 46.7761 41.5834C46.9811 41.9768 46.8118 42.5143 46.3544 42.7601L43.5518 44.1417L43.5333 44.1508L43.5156 44.1614C43.4208 44.2183 43.282 44.2485 43.1397 44.2485C42.8011 44.2485 42.4983 44.0653 42.3519 43.7967L42.3519 43.7967L42.3483 43.7902L37.5203 35.2424L37.3768 34.9883H37.0849H27.5873C27.1474 34.9883 26.7695 34.678 26.6947 34.2538L26.6947 34.2537L26.6928 34.244L24.5954 23.5987L24.5955 23.5987L24.5941 23.5924C24.4984 23.1374 24.8067 22.6694 25.3159 22.5622C25.7701 22.4665 26.2374 22.7737 26.3456 23.2814L27.3343 28.2645L27.4142 28.6672H27.8248H35.0667C35.5518 28.6672 35.9518 29.0462 35.9518 29.5523C35.9518 30.0374 35.5727 30.4373 35.0667 30.4373H28.3392H27.7266L27.8494 31.0375L28.2055 32.7788L28.2873 33.1786H28.6954H37.8764C38.215 33.1786 38.5178 33.3618 38.6643 33.6303L38.6642 33.6303L38.668 33.6371L43.2586 41.7497L43.4902 42.159L43.9129 41.9528L45.5355 41.1614Z" stroke="black"/>
<path d="M29.5015 17.4033C29.5015 19.0068 28.2016 20.3066 26.5981 20.3066C24.9947 20.3066 23.6948 19.0068 23.6948 17.4033C23.6948 15.7999 24.9947 14.5 26.5981 14.5C28.2016 14.5 29.5015 15.7999 29.5015 17.4033Z" stroke="black"/>
</svg>
