<svg width="62" height="62" viewBox="0 0 62 62" fill="none" xmlns="http://www.w3.org/2000/svg">
<rect width="62" height="62" fill="white"/>
<circle cx="31" cy="31" r="29.5" stroke="black"/>
<g clip-path="url(#clip0)">
<path d="M30.5155 14.0117C26.2784 14.0117 22.0412 15.6185 18.8247 18.8319C12.3918 25.2589 12.3918 35.7336 18.8247 42.1606C25.2577 48.5876 35.7113 48.5876 42.1753 42.1606C48.6082 35.7336 48.6392 25.2589 42.1753 18.8319C38.9588 15.6185 34.7526 14.0117 30.5155 14.0117ZM30.5155 16.2364C34.165 16.2364 37.8144 17.6269 40.6289 20.4078C46.1959 25.9696 46.1959 34.9921 40.6289 40.5848C35.0619 46.1466 26.0309 46.1466 20.433 40.5848C14.866 35.023 14.866 26.0005 20.433 20.4387C23.2165 17.6269 26.866 16.2364 30.5155 16.2364ZM30.4845 20.9949C30.4536 20.9949 30.3918 20.9949 30.3608 20.9949C29.7732 21.0567 29.3711 21.551 29.3711 22.1381V34.2196C29.3711 34.8376 29.866 35.3628 30.4845 35.3628C31.1031 35.3628 31.6289 34.8685 31.6289 34.2505V34.2196V22.1381C31.6289 21.5201 31.1649 20.9949 30.5155 20.9949C30.5155 20.9949 30.5155 20.9949 30.4845 20.9949ZM30.5155 37.0005C29.7113 37.0005 29.0309 37.6493 29.0309 38.4836C29.0309 39.3179 29.7113 39.9668 30.5155 39.9668C31.3196 39.9668 32 39.287 32 38.4836C32 37.6493 31.3196 37.0005 30.5155 37.0005Z" fill="black"/>
</g>
<defs>
<clipPath id="clip0">
<rect width="33" height="33" fill="white" transform="translate(14 14)"/>
</clipPath>
</defs>
</svg>
