<svg width="62" height="62" viewBox="0 0 62 62" fill="none" xmlns="http://www.w3.org/2000/svg">
<rect width="62" height="62" fill="white"/>
<circle cx="31" cy="31" r="29.5" stroke="#F32020"/>
<path d="M17.4705 45.0615C17.9705 45.0615 17.9705 45.0614 17.9705 45.0614V45.061V45.0605V45.0598V45.0588V45.0577V45.0563V45.0547V45.053V45.051V45.0488V45.0464V45.0438V45.041V45.038V45.0348V45.0314V45.0278V45.024V45.02V45.0158V45.0114V45.0068V45.002V44.9971V44.9919V44.9865V44.981V44.9752V44.9693V44.9632V44.9568V44.9503V44.9436V44.9368V44.9297V44.9224V44.915V44.9074V44.8996V44.8916V44.8834V44.8751V44.8665V44.8578V44.8489V44.8399V44.8306V44.8212V44.8116V44.8018V44.7919V44.7818V44.7715V44.761V44.7504V44.7396V44.7286V44.7175V44.7061V44.6947V44.683V44.6712V44.6592V44.6471V44.6348V44.6223V44.6097V44.5969V44.5839V44.5708V44.5575V44.5441V44.5305V44.5167V44.5028V44.4888V44.4745V44.4602V44.4456V44.431V44.4161V44.4011V44.386V44.3707V44.3553V44.3397V44.324V44.3081V44.2921V44.2759V44.2596V44.2432V44.2266V44.2098V44.1929V44.1759V44.1587V44.1414V44.124V44.1064V44.0887V44.0709V44.0529V44.0347V44.0165V43.9981V43.9796V43.9609V43.9421V43.9232V43.9042V43.885V43.8657V43.8462V43.8267V43.807V43.7872V43.7673V43.7472V43.727V43.7067V43.6863V43.6657V43.6451V43.6243V43.6034V43.5823V43.5612V43.54V43.5186V43.4971V43.4755V43.4538V43.4319V43.41V43.388V43.3658V43.3435V43.3211V43.2987V43.2761V43.2534V43.2306V43.2076V43.1846V43.1615V43.1383V43.1149V43.0915V43.068V43.0444V43.0206V42.9968V42.9729V42.9489V42.9247V42.9005V42.8762V42.8518V42.8273V42.8027V42.778V42.7533V42.7284V42.7035V42.6784V42.6533V42.6281V42.6028V42.5774V42.5519V42.5264V42.5007V42.475V42.4492V42.4233V42.3973V42.3713V42.3451V42.3189V42.2927V42.2663V42.2398V42.2133V42.1867V42.1601V42.1333V42.1065V42.0797V42.0527V42.0257V41.9986V41.9714V41.9442V41.9169V41.8896V41.8621V41.8346V41.8071V41.7795V41.7518V41.724V41.6962V41.6683V41.6404V41.6124V41.5844V41.5563V41.5281V41.4999V41.4716V41.4433V41.4149V41.3865V41.358V41.3295V41.3009V41.2722V41.2436V41.2148V41.186V41.1572V41.1283V41.0994V41.0704V41.0414V41.0123V40.9832V40.9541V40.9249V40.8957V40.8664V40.8371V40.8078V40.7784V40.749V40.7195V40.69V40.6605V40.631V40.6014V40.5718V40.5421V40.5124V40.4827V40.453V40.4232V40.3934V40.3636V40.3337V40.3038V40.2739V40.244V40.214V40.1841V40.1541V40.124V40.094V40.0639V40.0339V40.0038V39.9736V39.9435V39.9134V39.8832V39.853V39.8228V39.7926V39.7624V39.7322V39.702V39.6717V39.6414V39.6112V39.5809V39.5506V39.5203V39.49V39.4597V39.4294V39.3991V39.3688V39.3385V39.3082V39.2779V39.2476V39.2173V39.1869V39.1566V39.1263V39.096V39.0657V39.0354V39.0052V38.9749V38.9446V38.9144V38.8841V38.8539V38.8236V38.7934V38.7632V38.733V38.7028V38.6727V38.6425V38.6124V38.5823V38.5522V38.5221V38.492V38.462V38.4319V38.4019V38.372V38.342V38.3121V38.2822V38.2523V38.2224V38.1926V38.1628V38.133V38.1032V38.0735V38.0438V38.0142V37.9845V37.9549V37.9254V37.8958V37.8663V37.8369V37.8075V37.7781V37.7487V37.7194V37.6901V37.6609V37.6317V37.6026V37.5734V37.5444V37.5154V37.4864V37.4574V37.4285V37.3997V37.3709V37.3422V37.3135V37.2848V37.2562V37.2277V37.1992V37.1707V37.1423V37.114V37.0857V37.0575V37.0293V37.0012V36.9731V36.9451V36.9172V36.8893V36.8615V36.8337V36.806V36.7784V36.7508V36.7233V36.6959V36.6685V36.6412V36.6139V36.5868V36.5596V36.5326V36.5056V36.4787V36.4519V36.4252V36.3985V36.3719V36.3453V36.3189V36.2925V36.2662V36.24V36.2138V36.1878V36.1618V36.1359V36.11V36.0843V36.0586V36.0331V36.0076V35.9822V35.9568V35.9316V35.9065V35.8814V35.8564V35.8315V35.8067V35.782V35.7574V35.7329V35.7085V35.6842V35.6599V35.6358V35.6117V35.5878V35.5639V35.5402V35.5165V35.493V35.4695V35.4462V35.4229V35.3998V35.3768V35.3538V35.331V35.3083V35.2856V35.2631V35.2407V35.2184V35.1962V35.1742V35.1522V35.1303V35.1086V35.087V35.0655V35.0441V35.0228V35.0016V34.9806V34.9596V34.9388V34.9181V34.8976V34.8771V34.8568V34.8366V34.8165V34.7965V34.7767V34.7569V34.7374V34.7179V34.6986V34.6794V34.6603V34.6413V34.6225V34.6038V34.5853V34.5669V34.5486V34.5304V34.5124V34.4945V34.4768V34.4591V34.4417V34.4243V34.4071V34.3901V34.3732V34.3564V34.3398V34.3233V34.3069V34.2907V34.2747V34.2588V34.243V34.2274V34.2119V34.1966V34.1814V34.1664V34.1516V34.1369V34.1223V34.1079V34.0936V34.0795V34.0656V34.0518V34.0382V34.0247V34.0114V33.9982V33.9852V33.9724V33.9597V33.9472V33.9349V33.9227V33.9107V33.8988V33.8871V33.8756V33.8726C17.971 33.8699 17.972 33.8651 17.974 33.8582C17.9793 33.8393 17.9886 33.8137 18.0025 33.7845C18.0162 33.7555 18.032 33.7278 18.0478 33.7043C18.0576 33.6898 18.0658 33.6791 18.0717 33.672C19.0399 32.8585 22.3109 30.1485 25.3538 27.6305C26.8869 26.3618 28.3613 25.1425 29.4524 24.2404L30.761 23.1585L31.1236 22.8588L31.1888 22.8049L44.307 33.7579C44.3129 33.765 44.321 33.7755 44.3305 33.7898C44.3463 33.8133 44.3622 33.841 44.3759 33.8699C44.3897 33.8992 44.3991 33.9247 44.4044 33.9436C44.4063 33.9506 44.4074 33.9554 44.4079 33.9581V45.0615C44.4079 45.3328 44.3076 45.5529 44.0842 45.7763C43.8608 45.9998 43.6406 46.1 43.3693 46.1H35.4501V40.1894C35.4501 38.0328 33.6877 36.2704 31.5311 36.2704H30.89C28.7334 36.2704 26.971 38.0328 26.971 40.1894V46.1H19.009C18.7377 46.1 18.5175 45.9998 18.2941 45.7763C18.0707 45.5529 17.9705 45.3328 17.9705 45.0615H17.4705ZM31.2494 22.751C31.2494 22.751 31.2493 22.7511 31.2493 22.7511C31.2451 22.746 31.2316 22.7295 31.1878 22.6766C31.1809 22.6682 31.1733 22.659 31.1648 22.6487C31.1177 22.5917 31.045 22.5038 30.9327 22.3679L31.1648 22.6487L31.1879 22.6766L31.2494 22.751Z" stroke="#F32020"/>
<path d="M49.8011 31.299L49.8112 31.3074L49.8218 31.3154C49.8553 31.3405 49.8919 31.3725 49.9202 31.5118C49.9161 31.6094 49.8963 31.6617 49.8578 31.7159L48.3897 33.4356C48.3489 33.4726 48.2868 33.5096 48.1862 33.5352H48.1559C48.0797 33.5352 48.0378 33.5272 48.0165 33.5206C48.0015 33.5159 47.9984 33.5126 47.9969 33.511L47.9966 33.5107L47.9806 33.4947L47.9633 33.4803L31.4667 19.7188L31.146 19.4514L30.8257 19.7192L14.4275 33.427C14.3786 33.4607 14.306 33.4838 14.227 33.4905C14.131 33.465 14.071 33.4289 14.0312 33.3929L12.5632 31.6731C12.5196 31.6118 12.5 31.5529 12.5 31.4282C12.5 31.3719 12.5114 31.3492 12.5564 31.3154L12.5666 31.3077L12.5764 31.2996L29.7141 17.0253L29.7225 17.0183L29.7305 17.011C30.0926 16.6818 30.6063 16.5 31.1891 16.5C31.7588 16.5 32.2429 16.6745 32.6634 17.0246C32.6636 17.0248 32.6638 17.025 32.664 17.0252L38.4752 21.8963L39.2964 22.5847V21.5131V16.8547C39.2964 16.8129 39.3051 16.7674 39.3211 16.7261C39.3307 16.7015 39.341 16.6832 39.3494 16.6708C39.4515 16.6001 39.5102 16.5855 39.5656 16.5855H44.1386C44.1804 16.5855 44.2259 16.5942 44.2672 16.6102C44.2918 16.6198 44.3101 16.6301 44.3225 16.6385C44.3932 16.7406 44.4078 16.7993 44.4078 16.8547V26.5561V26.7898L44.5871 26.9397L49.8011 31.299Z" stroke="#F32020"/>
</svg>
