<svg width="62" height="62" viewBox="0 0 62 62" fill="none" xmlns="http://www.w3.org/2000/svg">
<rect width="62" height="62" fill="white"/>
<circle cx="30" cy="31" r="29.5" stroke="#F32020"/>
<path d="M33.9746 18.5325C33.9746 20.7492 32.1589 22.565 29.9422 22.565C27.7254 22.565 25.9097 20.7492 25.9097 18.5325C25.9097 16.3158 27.7254 14.5 29.9422 14.5C32.1589 14.5 33.9746 16.3158 33.9746 18.5325Z" stroke="#F32020"/>
<path d="M25.5319 29.9392V28.756L24.6834 29.5807L20.6419 33.5088L20.6407 33.51C19.9386 34.1972 19.2163 34.0589 18.8281 33.6894C18.6247 33.4957 18.502 33.2319 18.5 32.9451C18.4981 32.6641 18.6123 32.3153 18.9664 31.9527L25.3855 25.5336C25.6199 25.2991 25.844 25.1336 26.093 25.0238C26.3407 24.9145 26.6384 24.8491 27.0337 24.8491H32.8127C33.5602 24.8491 34.0471 25.1166 34.5049 25.5399L40.9943 32.067L40.9953 32.068C41.3223 32.395 41.4186 32.7158 41.4071 32.981C41.3951 33.2561 41.2646 33.5228 41.0495 33.7244C40.8345 33.9259 40.5519 34.0459 40.2607 34.0455C39.9787 34.0451 39.6504 33.9319 39.3308 33.5975L39.3245 33.5908L39.3179 33.5845L35.2009 29.5807L34.3523 28.7555V29.9392V33.5184H25.5319V29.9392Z" stroke="#F32020"/>
<path d="M34.3371 42.4927L34.6931 42.1368L34.3348 41.7833L31.8603 39.3418L34.9658 36.2362L35.1206 36.3907C35.4258 36.6954 35.8333 37.1017 36.242 37.508C36.6505 37.9142 37.0609 38.3211 37.3718 38.6266C37.5271 38.7792 37.6587 38.9077 37.7532 38.9985C37.8001 39.0436 37.8401 39.0815 37.8701 39.1091C37.884 39.1219 37.8997 39.1362 37.9146 39.1488C38.2866 39.5502 38.4418 40.113 38.3909 40.7085C38.3387 41.319 38.0721 41.9138 37.6715 42.3144L37.6714 42.3144L37.6644 42.3217L33.1356 47.0392C32.7878 47.3855 32.4445 47.4954 32.1589 47.4896C31.864 47.4837 31.5825 47.3534 31.3702 47.1377C31.1577 46.9219 31.0286 46.6345 31.0234 46.3342C31.0183 46.0426 31.1293 45.7006 31.4666 45.3633L34.3371 42.4927Z" stroke="#F32020"/>
<path d="M22.8507 38.2776C23.0856 38.0399 23.3504 37.7731 23.6159 37.506C24.0193 37.1002 24.4239 36.6945 24.7277 36.3901L24.881 36.2366L27.9885 39.3441L25.547 41.7856L25.1935 42.1392L25.547 42.4927L28.4176 45.3633C28.7549 45.7006 28.8659 46.0426 28.8608 46.3342C28.8556 46.6345 28.7264 46.9219 28.514 47.1377C28.3017 47.3534 28.0202 47.4837 27.7253 47.4896C27.4397 47.4954 27.0964 47.3855 26.7486 47.0392L22.2198 42.3217L22.2199 42.3216L22.2127 42.3144C21.812 41.9138 21.5463 41.3198 21.4983 40.7118C21.4506 40.1078 21.6193 39.5356 22.0238 39.1311L22.8774 38.2776H22.8507Z" stroke="#F32020"/>
</svg>
