<svg width="35" height="34" viewBox="0 0 35 34" fill="none" xmlns="http://www.w3.org/2000/svg">
<rect width="35" height="34" fill="white"/>
<g clip-path="url(#clip0)">
<path d="M17.4819 32.0001C8.75719 31.9377 1.94215 24.9398 1.99988 16.4042C2.01991 13.3432 2.94649 10.3568 4.6627 7.82171C6.37891 5.28662 8.80785 3.31644 11.643 2.15978C14.4782 1.00312 17.5926 0.7118 20.5933 1.32258C23.5939 1.93336 26.3464 3.41886 28.5033 5.59167C30.6603 7.76447 32.125 10.5272 32.7128 13.5313C33.3007 16.5353 32.9852 19.6462 31.8062 22.4712C30.6271 25.2962 28.6375 27.7089 26.0882 29.4047C23.5389 31.1006 20.5442 32.0037 17.4819 32.0001ZM18.6053 30.743C26.0553 30.3578 31.9124 23.6469 31.7985 16.8736H31.2977C30.8296 16.8736 30.3615 16.8845 29.8935 16.8658C29.8148 16.8709 29.7359 16.86 29.6614 16.8339C29.587 16.8078 29.5186 16.7669 29.4604 16.7138C29.4021 16.6606 29.3552 16.5963 29.3224 16.5246C29.2896 16.4529 29.2715 16.3753 29.2694 16.2965C29.2553 15.955 29.4457 15.7304 29.8295 15.6727C30.0098 15.6529 30.1913 15.6472 30.3725 15.6555H31.8375C31.3414 7.6486 24.5685 2.45672 18.6521 2.26334C18.6521 2.96359 18.6521 3.66697 18.6521 4.36098C18.6521 4.80703 18.4025 5.06748 18.028 5.05812C17.6536 5.04876 17.4695 4.79767 17.4554 4.36254C17.446 4.09118 17.4554 3.81669 17.4554 3.54532V2.14169C13.4363 2.25866 10.0132 3.65293 7.22505 6.49919C4.7521 9.02105 3.40876 12.0654 3.13728 15.6275H3.65839C4.24347 15.6275 4.82855 15.6275 5.41364 15.6275C5.77249 15.6275 5.95971 15.8505 6.00028 16.1843C6.00864 16.3353 5.95827 16.4837 5.8597 16.5985C5.76114 16.7133 5.622 16.7856 5.47136 16.8003C5.32947 16.8164 5.18655 16.8216 5.04387 16.8159H3.18876C3.18876 24.4173 9.80878 30.9208 17.4102 30.8007C17.4102 30.6635 17.4102 30.5247 17.4102 30.3843C17.4102 29.865 17.3992 29.3456 17.4102 28.8247C17.406 28.7456 17.4177 28.6665 17.4446 28.592C17.4716 28.5175 17.5132 28.4491 17.567 28.3909C17.6208 28.3328 17.6857 28.286 17.758 28.2533C17.8302 28.2207 17.9082 28.2029 17.9874 28.2009C18.1457 28.1996 18.298 28.2609 18.4114 28.3712C18.5247 28.4816 18.5899 28.6323 18.5928 28.7904C18.6053 28.9199 18.5928 29.0509 18.5928 29.1803C18.6069 29.709 18.6053 30.2253 18.6053 30.743Z" fill="#FF0000"/>
<path d="M18.6053 30.7429C18.6053 30.2251 18.6053 29.7089 18.6053 29.1927C18.6053 29.0632 18.6053 28.9322 18.6053 28.8028C18.6025 28.6446 18.5373 28.494 18.4239 28.3836C18.3106 28.2732 18.1582 28.212 18 28.2133C17.9207 28.2152 17.8427 28.2331 17.7705 28.2657C17.6983 28.2984 17.6333 28.3451 17.5795 28.4033C17.5257 28.4615 17.4841 28.5298 17.4571 28.6043C17.4302 28.6788 17.4185 28.758 17.4227 28.8371C17.4055 29.3565 17.4227 29.8758 17.4227 30.3967C17.4227 30.5371 17.4227 30.6759 17.4227 30.8131C9.82129 30.9332 3.20597 24.4297 3.20128 16.8283H5.05014C5.19283 16.834 5.33575 16.8288 5.47764 16.8127C5.62828 16.798 5.76742 16.7257 5.86598 16.6109C5.96455 16.4961 6.01492 16.3477 6.00656 16.1966C5.96599 15.8629 5.77877 15.6445 5.41992 15.6398C4.83483 15.6305 4.24975 15.6398 3.66467 15.6398H3.14355C3.41503 12.0777 4.75838 9.03341 7.23133 6.51155C10.0194 3.6653 13.4426 2.27102 17.4617 2.15405V3.55769C17.4617 3.82905 17.4617 4.10355 17.4617 4.37491C17.4757 4.81004 17.6879 5.06113 18.0343 5.07049C18.3807 5.07985 18.6443 4.8194 18.6584 4.37335C18.6677 3.67466 18.6584 2.96972 18.6584 2.2757C24.5747 2.46909 31.3476 7.66097 31.8438 15.6679H30.3725C30.1913 15.6596 30.0098 15.6653 29.8295 15.6851C29.4457 15.7459 29.2554 15.9705 29.2694 16.3089C29.2716 16.3877 29.2896 16.4653 29.3224 16.537C29.3552 16.6087 29.4022 16.673 29.4604 16.7261C29.5187 16.7793 29.5871 16.8201 29.6615 16.8462C29.7359 16.8724 29.8148 16.8832 29.8935 16.8782C30.3616 16.8969 30.8296 16.8782 31.2977 16.886H31.7985C31.9124 23.6468 26.0554 30.3577 18.6053 30.7429ZM25.7387 8.45168C25.7246 7.86996 25.2815 7.65941 24.7807 7.94794C21.7913 9.67596 18.805 11.4097 15.8219 13.1492C15.617 13.2815 15.4507 13.4654 15.3398 13.6826C14.1883 15.8332 13.0541 17.9917 11.9073 20.1486L10.4017 23.0074C10.2566 23.2818 10.1349 23.5688 10.4017 23.8293C10.6685 24.0897 10.9493 23.9852 11.2224 23.8215C11.2661 23.7949 11.3144 23.7747 11.3597 23.7482C14.5176 21.9234 17.6749 20.0966 20.8318 18.2678C21.0178 18.1556 21.1686 17.9935 21.2671 17.7999C22.7212 14.8107 24.1634 11.8188 25.5936 8.82443C25.6606 8.68563 25.7059 8.5359 25.7387 8.45168Z" fill="white"/>
<path d="M25.7388 8.45166C25.706 8.53588 25.6608 8.6856 25.5937 8.82441C24.1583 11.8188 22.7182 14.8112 21.2735 17.8014C21.175 17.995 21.0242 18.1571 20.8382 18.2693C17.6855 20.1034 14.5281 21.9302 11.3661 23.7497C11.3208 23.7762 11.2725 23.7965 11.2288 23.823C10.9557 23.9899 10.6718 24.0881 10.4081 23.8308C10.1444 23.5735 10.263 23.2834 10.4081 23.0089L11.9137 20.1502C13.0542 17.9932 14.1885 15.8348 15.3462 13.6841C15.4571 13.467 15.6234 13.283 15.8283 13.1507C18.8083 11.4071 21.7946 9.67334 24.7871 7.94947C25.2817 7.65939 25.7248 7.86993 25.7388 8.45166ZM23.7651 9.93171L23.6949 9.87713C23.6278 9.913 23.5576 9.94575 23.4905 9.98474C21.2137 11.3218 18.943 12.662 16.6786 14.0054C16.5171 14.1078 16.3852 14.2509 16.2964 14.4202C15.0482 16.77 13.8057 19.1239 12.569 21.482C12.5128 21.5865 12.4723 21.7004 12.388 21.8922C12.6049 21.7784 12.7328 21.7175 12.8561 21.6474C15.1855 20.3046 17.5118 18.9555 19.8474 17.6267C20.1411 17.4645 20.3727 17.2094 20.5058 16.9015C21.3343 15.1111 22.1784 13.3285 23.0162 11.5412C23.2674 11.0063 23.5155 10.4682 23.7651 9.93171V9.93171Z" fill="#FF0000"/>
<path d="M23.7651 9.93178C23.5154 10.4683 23.2674 11.0063 23.0162 11.5413C22.1783 13.3286 21.3342 15.1112 20.5058 16.9016C20.3726 17.2095 20.141 17.4645 19.8474 17.6268C17.507 18.9556 15.1854 20.3046 12.856 21.6474C12.7327 21.7176 12.6048 21.7784 12.3879 21.8923C12.4722 21.7005 12.5128 21.5804 12.5689 21.4821C13.8077 19.1271 15.0502 16.7732 16.2963 14.4203C16.3852 14.2509 16.517 14.1079 16.6785 14.0054C18.945 12.6538 21.2157 11.3136 23.4905 9.98481C23.5576 9.94582 23.6278 9.91307 23.6949 9.8772L23.7651 9.93178Z" fill="white"/>
</g>
<defs>
<clipPath id="clip0">
<rect width="31" height="31" fill="white" transform="translate(2 1)"/>
</clipPath>
</defs>
</svg>
