<svg width="62" height="62" viewBox="0 0 62 62" fill="none" xmlns="http://www.w3.org/2000/svg">
<rect width="62" height="62" fill="white"/>
<circle cx="31" cy="31" r="29.5" stroke="#F32020"/>
<path d="M22.4333 35.8666H29.9778C30.2111 35.8666 30.3667 35.6722 30.3667 35.4778C30.3667 35.2444 30.1722 35.0889 29.9778 35.0889H22.4333C22.2 35.0889 22.0444 35.2833 22.0444 35.4778C22.0444 35.7111 22.2 35.8666 22.4333 35.8666Z" fill="#F32020"/>
<path d="M31.4555 41.6223H27.9555C27.7222 41.6223 27.5667 41.8168 27.5667 42.0112C27.5667 42.2445 27.7611 42.4001 27.9555 42.4001H31.4555C31.6889 42.4001 31.8444 42.2056 31.8444 42.0112C31.8444 41.7779 31.7278 41.6223 31.4555 41.6223Z" fill="#F32020"/>
<path d="M22.4333 18.8334H26.9444C27.1778 18.8334 27.3333 18.639 27.3333 18.4446C27.3333 18.2501 27.1389 18.0557 26.9444 18.0557H22.4333C22.2 18.0557 22.0444 18.2501 22.0444 18.4446C22.0444 18.639 22.2 18.8334 22.4333 18.8334Z" fill="#F32020"/>
<path d="M22.4333 23.3444H36.9778C37.2111 23.3444 37.3667 23.15 37.3667 22.9555C37.3667 22.7222 37.1722 22.5667 36.9778 22.5667H22.4333C22.2 22.5667 22.0444 22.7611 22.0444 22.9555C22.0444 23.15 22.2 23.3444 22.4333 23.3444Z" fill="#F32020"/>
<path d="M22.4333 25.8334H36.9778C37.2111 25.8334 37.3667 25.639 37.3667 25.4446C37.3667 25.2112 37.1722 25.0557 36.9778 25.0557H22.4333C22.2 25.0557 22.0444 25.2501 22.0444 25.4446C22.0444 25.6779 22.2 25.8334 22.4333 25.8334Z" fill="#F32020"/>
<path d="M22.4333 28.361H36.9778C37.2111 28.361 37.3667 28.1666 37.3667 27.9721C37.3667 27.7777 37.1722 27.5833 36.9778 27.5833H22.4333C22.2 27.5833 22.0444 27.7777 22.0444 27.9721C22.0444 28.1666 22.2 28.361 22.4333 28.361Z" fill="#F32020"/>
<path d="M22.4333 30.85H36.9778C37.2111 30.85 37.3667 30.6556 37.3667 30.4612C37.3667 30.2667 37.1722 30.0723 36.9778 30.0723H22.4333C22.2 30.0723 22.0444 30.2667 22.0444 30.4612C22.0444 30.6556 22.2 30.85 22.4333 30.85Z" fill="#F32020"/>
<path d="M22.4333 33.3779H36.9778C37.2111 33.3779 37.3667 33.1834 37.3667 32.989C37.3667 32.7945 37.1722 32.6001 36.9778 32.6001H22.4333C22.2 32.6001 22.0444 32.7945 22.0444 32.989C22.0444 33.1834 22.2 33.3779 22.4333 33.3779Z" fill="#F32020"/>
<path d="M43.2389 15.5278H42.6167V14.9056C42.6167 14.5556 42.3444 14.2444 41.9556 14.2444H41.3333V13.6611C41.3333 13.3111 41.0611 13 40.6722 13H18.6611C18.3111 13 18 13.2722 18 13.6611V44.7722C18 45.1222 18.2722 45.4333 18.6611 45.4333H19.2833V46.0556C19.2833 46.4056 19.5556 46.7167 19.9444 46.7167H20.5667V47.3389C20.5667 47.6889 20.8389 48 21.2278 48H43.3167C43.6667 48 43.9778 47.7278 43.9778 47.3389V16.2278C43.9 15.8 43.5889 15.5278 43.2389 15.5278ZM40.5944 39.6H36.2C35.85 39.6 35.5389 39.8722 35.5389 40.2611V44.6167H18.8167V13.8167H40.5944V39.6ZM40.0111 40.4167L36.3556 44.0722V40.4167H40.0111ZM36.0056 45.3944C36.1222 45.3944 36.2 45.3556 36.2778 45.2778L41.2556 40.2611C41.3333 40.1833 41.3722 40.1056 41.3722 39.9889V15.0611H41.8389V15.5278V15.8V16.0333V16.3056V45.8611H21.3444H21.0333H20.8389H20.5667H20.0611V45.3944H36.0056ZM21.3444 46.6778H42.0333C42.3833 46.6778 42.6944 46.4056 42.6944 46.0167V16.3056H43.1611V47.1444H21.3833L21.3444 46.6778Z" fill="#F32020"/>
</svg>
