<svg width="62" height="62" viewBox="0 0 62 62" fill="none" xmlns="http://www.w3.org/2000/svg">
<rect width="62" height="62" fill="white"/>
<circle cx="31" cy="31" r="29.5" stroke="red"/>
<path d="M41.6034 13.0943H30.8966V10.3868C30.8966 10.1547 30.7379 10 30.5 10C30.2621 10 30.1034 10.1547 30.1034 10.3868V13.0943H19.3966C19.1586 13.0943 19 13.2491 19 13.4811V41.3302C19 41.5623 19.1586 41.717 19.3966 41.717H26.7724L23.7586 50.4585C23.6793 50.6906 23.8379 50.8453 23.9966 50.9226C24.0759 50.9226 24.0759 50.9226 24.1552 50.9226C24.3138 50.9226 24.4724 50.8453 24.5517 50.6906L26.5345 44.8113H34.3862L36.4483 50.7679C36.5276 50.9226 36.6862 51 36.8448 51C36.9241 51 36.9241 51 37.0034 51C37.2414 50.9226 37.3207 50.6906 37.2414 50.5359L34.2276 41.717H41.6034C41.8414 41.717 42 41.5623 42 41.3302V13.4811C42 13.2491 41.8414 13.0943 41.6034 13.0943ZM34.1483 44.0377H26.8517L27.6448 41.717H33.4345L34.1483 44.0377ZM41.2069 40.9434H19.7931V13.8679H41.2069V40.9434Z" fill="red"/>
<path d="M25.3448 32.2019C24.9482 32.5887 24.8689 33.2849 24.7896 33.9037C24.7103 34.6773 24.631 35.4509 23.9965 36.0698C23.6793 36.3792 23.7586 36.6113 23.7586 36.766C23.8379 36.8434 23.9965 37.0754 24.3931 37.0754C25.1862 37.0754 27.962 36.1471 28.6758 35.4509C29.1517 34.9868 29.3896 34.4453 29.3896 33.8264C29.3896 33.3622 29.231 32.8981 28.9931 32.5887L38.0344 23.6924C38.193 23.5377 38.193 23.2283 38.0344 23.0736C37.8758 22.9188 37.5586 22.9188 37.3999 23.0736L28.2793 31.8924C27.4068 31.3509 26.1379 31.4283 25.3448 32.2019ZM24.3931 36.6113V36.1471V36.6113ZM27.962 34.7547C27.6448 35.0641 26.2172 35.683 25.1862 35.9924C25.5827 35.2962 25.5827 34.6 25.662 33.9811C25.7413 33.517 25.7413 33.0528 25.8999 32.8207C26.1379 32.5887 26.5344 32.4339 26.931 32.4339C27.3275 32.4339 27.6448 32.5887 27.962 32.8207C28.1999 33.0528 28.3586 33.4396 28.3586 33.8264C28.4379 34.1358 28.2793 34.5226 27.962 34.7547Z" fill="red"/>
</svg>
