<svg width="62" height="62" viewBox="0 0 62 62" fill="none" xmlns="http://www.w3.org/2000/svg">
<rect width="62" height="62" fill="white"/>
<circle cx="31" cy="31" r="29.5" stroke="red"/>
<path d="M28.2483 29.2432C27.7739 29.2432 27.3857 28.8551 27.3857 28.3807C27.3857 28.0788 27.5151 27.82 27.7739 27.6475C28.2914 27.3456 28.8952 27.13 29.499 27.0437C29.8009 27.0006 30.0597 26.9143 30.3616 26.8281C30.491 26.7418 30.6203 26.6556 30.7066 26.5262C31.0085 26.1812 31.5692 26.138 31.9142 26.4399C32.2592 26.7418 32.3023 27.2594 32.0436 27.6044C31.7417 27.9494 31.3966 28.2513 30.9222 28.3807C30.5772 28.5101 30.1891 28.5963 29.844 28.6395C29.4559 28.6826 29.0677 28.812 28.7227 28.9845C28.5933 29.157 28.4208 29.2001 28.2483 29.2432Z" fill="red"/>
<path d="M31.7418 24.0247C31.4399 24.0247 31.138 23.8522 31.0086 23.5934C30.9224 23.4209 30.793 23.2484 30.6205 23.0327C29.8442 21.9977 28.8091 20.6176 28.8091 17.3399C28.8091 16.8654 29.1972 16.4773 29.6716 16.4773C30.146 16.4773 30.5342 16.8654 30.5342 17.3399C30.5342 20.0138 31.3536 21.1351 32.0006 21.9977C32.1731 22.2133 32.3456 22.429 32.475 22.6877C32.7337 23.119 32.5612 23.6365 32.1731 23.8522C32.0437 23.9384 31.9143 23.9816 31.7418 24.0247Z" fill="red"/>
<path d="M37.9522 24.2833C37.4778 24.2833 37.0896 23.8951 37.0896 23.4207C37.0896 23.2914 37.1327 23.162 37.1759 23.0326C37.3484 22.7307 37.5209 22.4719 37.6934 22.17C38.6853 20.7899 39.246 19.1079 39.2891 17.3828C39.2891 16.9084 39.6773 16.5203 40.1517 16.5203C40.6261 16.5203 41.0142 16.9084 41.0142 17.3828C40.9711 19.4098 40.3242 21.3937 39.1597 23.0757C38.9872 23.3345 38.8147 23.5932 38.6853 23.852C38.556 24.1108 38.2541 24.2833 37.9522 24.2833Z" fill="red"/>
<path d="M43.6018 46.5375C43.1274 46.5375 42.7392 46.1493 42.7392 45.6749V31.9602C42.7824 31.0977 42.4374 30.2782 41.8767 29.6313C41.4454 29.2 40.7985 29.0275 40.0653 28.8119C39.7634 28.7256 39.4184 28.6394 39.0734 28.51C38.1246 28.165 37.0032 26.138 36.7876 25.6635C36.6151 25.2323 36.8307 24.7147 37.262 24.5422C37.6933 24.3697 38.2108 24.5853 38.3833 25.0166C38.6852 25.7067 39.1596 26.3536 39.6772 26.9143C39.9359 27.0005 40.2378 27.0868 40.5397 27.173C41.4454 27.4318 42.3942 27.6906 43.1274 28.51C43.99 29.4588 44.4644 30.7526 44.4644 32.0465V45.8043C44.4644 46.1493 44.0762 46.5375 43.6018 46.5375Z" fill="red"/>
<path d="M34.9764 26.4398C33.467 26.4398 31.9575 25.4047 31.0949 23.809C30.8793 23.3777 31.0518 22.8601 31.4399 22.6445C31.8712 22.4289 32.3888 22.6014 32.6044 22.9895C33.1219 23.9815 34.1139 24.7147 34.9333 24.7147C35.7959 24.7147 36.5722 24.0677 37.1328 22.9895C37.3485 22.5583 37.866 22.3857 38.2973 22.6014C38.7286 22.817 38.9011 23.3346 38.6854 23.7658C38.6854 23.7658 38.6854 23.7658 38.6854 23.809C37.8229 25.491 36.4428 26.4398 34.9764 26.4398Z" fill="red"/>
<path d="M40.1516 18.2455C39.6772 18.2455 39.289 17.8573 39.289 17.3829C39.289 14.8815 37.3483 12.7251 35.0194 12.7251C32.6904 12.7251 30.5772 14.8815 30.5772 17.3829C30.5772 17.8573 30.189 18.2455 29.7146 18.2455C29.2402 18.2455 28.8521 17.8573 28.8521 17.3829C28.8521 13.9327 31.6554 11 35.0194 11C38.254 11 41.0141 13.9327 41.0141 17.3829C41.0141 17.8573 40.626 18.2455 40.1516 18.2455Z" fill="red"/>
<path d="M34.9763 31.2701C34.7607 31.2701 34.5882 31.1838 34.4157 31.0544L32.8199 29.7174C32.4318 29.4156 32.3887 28.8549 32.6905 28.5099C32.9924 28.1648 33.5531 28.0786 33.8981 28.3805L34.9763 29.2862L38.0384 26.9573C38.3834 26.6554 38.9441 26.6985 39.246 27.0435C39.5479 27.3885 39.5048 27.9492 39.1597 28.2511C39.1166 28.2511 39.1166 28.2942 39.0735 28.2942L35.4507 31.0544C35.3645 31.1838 35.1488 31.2701 34.9763 31.2701Z" fill="red"/>
<path d="M37.3483 18.7631H37.3052C35.882 18.6769 34.545 18.1162 33.4668 17.1674C32.7768 17.8574 31.6554 18.7631 30.4478 18.72C29.9734 18.6769 29.6284 18.2887 29.6284 17.8143C29.6715 17.3399 30.0597 16.9949 30.5341 16.9949H30.5772C31.2241 16.9949 32.2592 16.0461 32.7768 15.356C32.9493 15.1404 33.208 15.011 33.4668 15.011C33.7256 15.011 33.9843 15.1404 34.1569 15.356C34.9763 16.348 36.1407 16.9949 37.4346 17.038C37.909 17.038 38.2971 17.4693 38.254 17.9437C38.2109 18.375 37.8227 18.7631 37.3483 18.7631Z" fill="red"/>
<path d="M34.9763 38.7745C34.9332 38.7745 34.8469 38.7745 34.8038 38.7745C34.7607 38.7745 34.6744 38.7314 34.6313 38.7314C34.5882 38.6883 34.545 38.6883 34.5019 38.6451C34.4588 38.602 34.4157 38.5589 34.3725 38.5589C34.2 38.3864 34.1138 38.1707 34.1138 37.912C34.1138 37.8688 34.1138 37.7826 34.1138 37.7394C34.1138 37.6963 34.1569 37.6532 34.1569 37.5669C34.2 37.5238 34.2 37.4807 34.2431 37.4376C34.2863 37.3944 34.3294 37.3513 34.3294 37.3082C34.3725 37.265 34.4157 37.2219 34.4588 37.2219C34.5019 37.1788 34.5451 37.1788 34.5882 37.1357C34.6313 37.1357 34.7176 37.0925 34.7607 37.0925C34.8901 37.0925 34.9763 37.0925 35.1057 37.0925C35.1488 37.0925 35.2351 37.1357 35.2782 37.1357C35.3645 37.1788 35.4939 37.2219 35.537 37.3082C35.5801 37.3513 35.6232 37.3944 35.6232 37.4376C35.6664 37.4807 35.6664 37.5238 35.7095 37.5669C35.7095 37.6101 35.7526 37.6532 35.7526 37.7394C35.7526 37.7826 35.7526 37.8688 35.7526 37.912C35.7526 37.9551 35.7526 38.0413 35.7526 38.0845C35.7526 38.1276 35.7095 38.2139 35.7095 38.257C35.7095 38.3001 35.6664 38.3432 35.6232 38.3864C35.5801 38.4295 35.537 38.4726 35.537 38.5158C35.4507 38.602 35.3645 38.6451 35.2782 38.6883C35.192 38.7314 35.0626 38.7745 34.9763 38.7745Z" fill="red"/>
<path d="M34.9763 36.1867C34.9332 36.1867 34.8469 36.1867 34.8038 36.1867C34.7607 36.1867 34.6744 36.1436 34.6313 36.1436C34.5882 36.1436 34.545 36.1005 34.5019 36.0573C34.4588 36.0142 34.4157 35.9711 34.3725 35.9711C34.2 35.7986 34.1138 35.5829 34.1138 35.3673C34.1138 35.3242 34.1138 35.2379 34.1138 35.1948C34.1138 35.0654 34.1569 34.9791 34.2431 34.8929C34.2863 34.8497 34.3294 34.8066 34.3294 34.7635C34.3725 34.7204 34.4157 34.6772 34.4588 34.6772C34.5019 34.6341 34.5451 34.6341 34.5882 34.591C34.6313 34.5479 34.6744 34.5479 34.7607 34.5479C34.8901 34.5479 34.9763 34.5479 35.1057 34.5479C35.1488 34.5479 35.2351 34.591 35.2782 34.591C35.3213 34.6341 35.3645 34.6341 35.4507 34.6772C35.537 34.7204 35.6233 34.8066 35.6664 34.936C35.7095 34.9791 35.7095 35.0223 35.7526 35.0654C35.7958 35.1085 35.7958 35.1516 35.7958 35.2379C35.8389 35.3673 35.8389 35.4535 35.7958 35.5829C35.7958 35.6261 35.7526 35.7123 35.7526 35.7554C35.7526 35.7986 35.7095 35.8417 35.6664 35.8848C35.6233 35.9279 35.5801 35.9711 35.5801 36.0142C35.4076 36.1005 35.192 36.1867 34.9763 36.1867Z" fill="red"/>
<path d="M34.9763 33.599C34.5019 33.599 34.1138 33.2108 34.1138 32.7364C34.1138 32.6933 34.1138 32.607 34.1138 32.5639C34.1138 32.4345 34.1569 32.3483 34.2431 32.262C34.2863 32.2189 34.3294 32.1758 34.3294 32.1326C34.3725 32.0895 34.4157 32.0464 34.4588 32.0464C34.5019 32.0032 34.5451 32.0032 34.5882 31.9601C34.6313 31.917 34.6744 31.917 34.7607 31.917C34.8901 31.917 34.9763 31.917 35.1057 31.917C35.1488 31.917 35.2351 31.9601 35.2782 31.9601C35.3213 31.9601 35.3645 32.0032 35.4507 32.0464C35.537 32.0895 35.6233 32.1758 35.6664 32.3051C35.7095 32.3483 35.7095 32.3914 35.7526 32.4345C35.7958 32.4777 35.7958 32.5208 35.7958 32.607C35.7958 32.6502 35.8389 32.7364 35.8389 32.7796C35.8389 32.8227 35.8389 32.9089 35.8389 32.9521C35.8389 32.9952 35.7958 33.0814 35.7958 33.1246C35.7958 33.1677 35.7526 33.2108 35.7095 33.254C35.6664 33.2971 35.6232 33.3402 35.6232 33.3833C35.4507 33.5127 35.192 33.599 34.9763 33.599Z" fill="red"/>
<path d="M16.8626 47.4001C16.3882 47.4001 16 47.0119 16 46.5375V43.8636C16 41.7935 17.3801 39.939 19.4071 39.3783C19.6227 39.2489 19.7953 39.0333 19.8815 38.7745C20.0109 38.5157 20.0109 38.1707 19.8815 37.9119C19.7953 37.7394 19.6659 37.5669 19.5796 37.3944C18.6308 36.0143 18.1133 34.3754 18.1564 32.7366C18.1564 32.2622 18.5445 31.874 19.019 31.874C19.4934 31.874 19.8815 32.2622 19.8815 32.7366C19.8384 34.0735 20.2697 35.3674 21.046 36.4456C21.1753 36.6612 21.3479 36.8769 21.4341 37.1356C21.7791 37.8688 21.7791 38.6882 21.4772 39.4214C21.2185 40.1546 20.6578 40.7153 19.9678 41.0172H19.9246C18.6308 41.3622 17.7682 42.5266 17.7682 43.8205V46.5375C17.7251 47.0119 17.337 47.4001 16.8626 47.4001Z" fill="red"/>
<path d="M28.9385 47.4001C28.4641 47.4001 28.0759 47.0119 28.0759 46.5375V43.8636C28.0759 42.5266 27.2134 41.4053 25.9195 41.0603C25.7901 41.0172 25.6608 40.974 25.5745 40.8878C25.1863 40.5859 24.2807 39.8096 24.0219 39.1627C23.8494 38.7314 24.065 38.2138 24.5394 38.0413C24.9707 37.8688 25.4451 38.0845 25.6176 38.4726C25.8764 38.8176 26.1783 39.1626 26.5233 39.4214C28.4641 40.0252 29.801 41.8366 29.801 43.8636V46.5375C29.801 47.0119 29.4129 47.4001 28.9385 47.4001Z" fill="red"/>
<path d="M22.9004 39.6371C21.6497 39.6371 20.5284 38.9901 19.9677 37.8688C19.7521 37.4375 19.9246 36.92 20.3127 36.7044C20.744 36.4887 21.2616 36.6612 21.4772 37.0494C21.736 37.5669 22.2966 37.9119 22.9004 37.8688C23.418 37.9551 23.9355 37.6963 24.1943 37.2219C24.3236 36.92 24.453 36.6181 24.6255 36.3593C25.3156 35.2811 25.6606 34.0304 25.7037 32.7366C25.7037 32.2622 26.0919 31.874 26.5663 31.874C27.0407 31.874 27.4289 32.2622 27.4289 32.7366C27.4289 34.2892 26.9545 35.8418 26.135 37.1356C26.0056 37.3513 25.8762 37.61 25.79 37.8688L25.7469 37.9551C25.1862 39.0764 24.0649 39.7233 22.9004 39.6371Z" fill="red"/>
<path d="M22.9004 42.8715C21.5635 42.8284 20.399 42.0952 19.709 40.9739C19.4502 40.5858 19.5364 40.0251 19.9246 39.7663C20.3127 39.5076 20.8734 39.5938 21.1322 39.982C21.1753 40.0251 21.1753 40.0682 21.2184 40.1113C21.5635 40.7151 22.2104 41.1033 22.9435 41.1464C23.6336 41.1033 24.2805 40.7151 24.6255 40.1113C24.8843 39.7232 25.445 39.6369 25.8331 39.9388C26.1781 40.1976 26.2644 40.6289 26.0919 40.9739C25.445 42.0952 24.2374 42.8284 22.9004 42.8715Z" fill="red"/>
<path d="M26.5664 33.6854C26.092 33.6854 25.7039 33.2973 25.7039 32.8229C25.7039 31.2703 24.4532 30.0196 22.9006 30.0196C21.2617 30.0196 19.8816 31.2703 19.8816 32.7366C19.8816 33.211 19.4935 33.5992 19.0191 33.5992C18.5446 33.5992 18.1565 33.211 18.1565 32.7366C18.1565 30.3214 20.356 28.2944 22.9006 28.2944C25.402 28.2944 27.429 30.3214 27.429 32.8229C27.429 33.2973 27.084 33.6854 26.5664 33.6854Z" fill="red"/>
<path d="M26.4369 34.3323C21.3047 34.3323 20.0109 33.4266 19.0621 32.3915L18.9758 32.2621C18.6739 31.9171 18.717 31.3564 19.0621 31.0546C19.4071 30.7527 19.9246 30.7527 20.2265 31.0977L20.3559 31.2271C20.9166 31.8309 21.6497 32.6072 26.4801 32.6072C26.9545 32.6072 27.3426 32.9953 27.3426 33.4697C27.3426 33.9441 26.9545 34.3323 26.4369 34.3323Z" fill="red"/>
</svg>
