<svg width="62" height="62" viewBox="0 0 62 62" fill="none" xmlns="http://www.w3.org/2000/svg">
<rect width="62" height="62" fill="white"/>
<circle cx="31" cy="31" r="29.5" stroke="red"/>
<path d="M26.7067 45.125H35.2933C35.4087 45.125 35.5135 45.0686 35.5871 44.9951C35.6606 44.9215 35.717 44.8167 35.717 44.7013V35.717H44.7013C44.9671 35.717 45.125 35.5012 45.125 35.2933V26.7067C45.125 26.4409 44.9092 26.283 44.7013 26.283H35.717V17.2987C35.717 17.0329 35.5012 16.875 35.2933 16.875H26.7067C26.4409 16.875 26.283 17.0908 26.283 17.2987V26.283H17.2987C17.033 26.283 16.875 26.4988 16.875 26.7067V35.2933C16.875 35.5591 17.0908 35.717 17.2987 35.717H26.283V44.7013C26.283 44.9671 26.4988 45.125 26.7067 45.125ZM34.907 35.2933V44.2777H27.1303V35.3307C27.1303 35.0649 26.9146 34.907 26.7067 34.907H17.685V27.1303H26.6693C26.935 27.1303 27.093 26.9146 27.093 26.7067V17.7223H34.8697V26.7067C34.8697 26.9724 35.0854 27.1303 35.2933 27.1303H44.315V34.8697H35.3307C35.065 34.8697 34.907 35.0854 34.907 35.2933Z" fill="red" stroke="red" stroke-width="0.25"/>
</svg>
