<svg width="62" height="62" viewBox="0 0 62 62" fill="none" xmlns="http://www.w3.org/2000/svg">
<rect width="62" height="62" fill="white"/>
<circle cx="31" cy="31" r="29.5" stroke="black"/>
<path d="M33.7131 20.0197L33.7197 20.0268L33.7265 20.0336L33.7267 20.0338C33.7269 20.034 33.7274 20.0345 33.728 20.0352L33.7324 20.0397L33.7473 20.0554C33.7597 20.0686 33.7764 20.0865 33.797 20.1092C33.8383 20.1545 33.8947 20.2179 33.964 20.2988C34.1025 20.4605 34.292 20.6911 34.5149 20.9859C34.9608 21.5758 35.5387 22.4205 36.1097 23.4819C37.2526 25.6065 38.3594 28.5838 38.34 32.1173H38.34V32.12V48.32C38.34 49.5239 37.3639 50.5 36.16 50.5C34.9562 50.5 33.98 49.5239 33.98 48.32V32.12C33.98 30.238 33.5198 28.5749 32.987 27.1815L32.7251 26.4964L32.1831 26.9905L28.1031 30.7105L27.6257 31.1459L28.1669 31.4988C28.9494 32.0092 29.5 32.9338 29.5 34C29.5 34.2039 29.3239 34.38 29.12 34.38C28.9161 34.38 28.74 34.2039 28.74 34C28.74 32.779 27.771 31.74 26.52 31.74H26.5198H26.5195H26.5193H26.5191H26.5188H26.5186H26.5184H26.5182H26.5179H26.5177H26.5175H26.5173H26.517H26.5168H26.5166H26.5164H26.5162H26.5159H26.5157H26.5155H26.5153H26.5151H26.5149H26.5146H26.5144H26.5142H26.514H26.5138H26.5136H26.5134H26.5132H26.513H26.5128H26.5126H26.5124H26.5121H26.5119H26.5117H26.5115H26.5113H26.5111H26.5109H26.5108H26.5106H26.5104H26.5102H26.51H26.5098H26.5096H26.5094H26.5092H26.509H26.5088H26.5086H26.5085H26.5083H26.5081H26.5079H26.5077H26.5075H26.5073H26.5072H26.507H26.5068H26.5066H26.5064H26.5063H26.5061H26.5059H26.5057H26.5056H26.5054H26.5052H26.505H26.5049H26.5047H26.5045H26.5044H26.5042H26.504H26.5039H26.5037H26.5035H26.5034H26.5032H26.503H26.5029H26.5027H26.5026H26.5024H26.5022H26.5021H26.5019H26.5018H26.5016H26.5015H26.5013H26.5012H26.501H26.5008H26.5007H26.5005H26.5004H26.5002H26.5001H26.5H26.4998H26.4997H26.4995H26.4994H26.4992H26.4991H26.4989H26.4988H26.4987H26.4985H26.4984H26.4982H26.4981H26.498H26.4978H26.4977H26.4975H26.4974H26.4973H26.4971H26.497H26.4969H26.4968H26.4966H26.4965H26.4964H26.4962H26.4961H26.496H26.4958H26.4957H26.4956H26.4955H26.4953H26.4952H26.4951H26.495H26.4949H26.4947H26.4946H26.4945H26.4944H26.4943H26.4941H26.494H26.4939H26.4938H26.4937H26.4936H26.4935H26.4933H26.4932H26.4931H26.493H26.4929H26.4928H26.4927H26.4926H26.4925H26.4924H26.4922H26.4921H26.492H26.4919H26.4918H26.4917H26.4916H26.4915H26.4914H26.4913H26.4912H26.4911H26.491H26.4909H26.4908H26.4907H26.4906H26.4905H26.4904H26.4903H26.4902H26.4901H26.49H26.49H26.4899H26.4898H26.4897H26.4896H26.4895H26.4894H26.4893H26.4892H26.4891H26.4891H26.489H26.4889H26.4888H26.4887H26.4886H26.4885H26.4885H26.4884H26.4883H26.4882H26.4881H26.4881H26.488H26.4879H26.4878H26.4877H26.4877H26.4876H26.4875H26.4874H26.4873H26.4873H26.4872H26.4871H26.4871H26.487H26.4869H26.4868H26.4868H26.4867H26.4866H26.4865H26.4865H26.4864H26.4863H26.4863H26.4862H26.4861H26.4861H26.486H26.4859H26.4859H26.4858H26.4857H26.4857H26.4856H26.4856H26.4855H26.4854H26.4854H26.4853H26.4852H26.4852H26.4851H26.4851H26.485H26.4849H26.4849H26.4848H26.4848H26.4847H26.4847H26.4846H26.4846H26.4845H26.4844H26.4844H26.4843H26.4843H26.4842H26.4842H26.4841H26.4841H26.484H26.484H26.4839H26.4839H26.4838H26.4838H26.4837H26.4837H26.4836H26.4836H26.4835H26.4835H26.4834H26.4834H26.4834H26.4833H26.4833H26.4832H26.4832H26.4831H26.4831H26.4831H26.483H26.483H26.4829H26.4829H26.4828H26.4828H26.4828H26.4827H26.4827H26.4826H26.4826H26.4826H26.4825H26.4825H26.4825H26.4824H26.4824H26.4824H26.4823H26.4823H26.4822H26.4822H26.4822H26.4821H26.4821H26.4821H26.482H26.482H26.482H26.482H26.4819H26.4819H26.4819H26.4818H26.4818H26.4818H26.4817H26.4817H26.4817H26.4817H26.4816H26.4816H26.4816H26.4815H26.4815H26.4815H26.4815H26.4814H26.4814H26.4814H26.4814H26.4813H26.4813H26.4813H26.4813H26.4812H26.4812H26.4812H26.4812H26.4812H26.4811H26.4811H26.4811H26.4811H26.4811H26.481H26.481H26.481H26.481H26.481H26.4809H26.4809H26.4809H26.4809H26.4809H26.4808H26.4808H26.4808H26.4808H26.4808H26.4808H26.4807H26.4807H26.4807H26.4807H26.4807H26.4807H26.4806H26.4806H26.4806H26.4806H26.4806H26.4806H26.4806H26.4805H26.4805H26.4805H26.4805H26.4805H26.4805H26.4805H26.4805H26.4804H26.4804H26.4804H26.4804H26.4804H26.4804H26.4804H26.4804H26.4804H26.4804H26.4803H26.4803H26.4803H26.4803H26.4803H26.4803H26.4803H26.4803H26.4803H26.4803H26.4803H26.4802H26.4802H26.4802H26.4802H26.4802H26.4802H26.4802H26.4802H26.4802H26.4801H26.4801H26.4801H26.4801H26.4801H26.4801H26.4801H26.4801H26.4801H26.4801H26.48H26.48H26.48H26.48H26.48H26.48H26.4696L26.4592 31.7405C25.2433 31.7911 24.26 32.7602 24.26 34V49.92C24.26 50.1239 24.0839 50.3 23.88 50.3C23.6761 50.3 23.5 50.1239 23.5 49.92V34C23.5 32.8345 24.1495 31.8386 25.1161 31.3208L25.428 31.1537L25.3742 30.804C25.3175 30.4357 25.4305 30.048 25.7363 29.77L25.7371 29.7693L31.2571 24.7293L31.5787 24.4356L31.332 24.0768C31.1048 23.7463 30.9079 23.487 30.7666 23.3091C30.6959 23.2201 30.639 23.1513 30.5992 23.104C30.5793 23.0804 30.5636 23.0621 30.5526 23.0494L30.5395 23.0344L30.5357 23.0301L30.5345 23.0287L30.534 23.0282L30.5339 23.028L30.5338 23.0279C30.5337 23.0279 30.5337 23.0278 30.16 23.36L30.5337 23.0278L30.5271 23.0204L30.5202 23.0132C29.6793 22.14 29.7398 20.7416 30.6197 19.9269C31.5037 19.1084 32.9068 19.1489 33.7131 20.0197Z" stroke="black"/>
<path d="M31.74 14.88C31.74 16.7467 30.2267 18.26 28.36 18.26C26.4933 18.26 24.98 16.7467 24.98 14.88C24.98 13.0133 26.4933 11.5 28.36 11.5C30.2267 11.5 31.74 13.0133 31.74 14.88Z" stroke="black"/>
</svg>
