<?xml version="1.0" encoding="UTF-8"?>
<!-- Generator: Adobe Illustrator 22.1.0, SVG Export Plug-In . SVG Version: 6.00 Build 0)  -->
<svg version="1.1" id="Calque_1" xmlns="http://www.w3.org/2000/svg" xmlns:xlink="http://www.w3.org/1999/xlink" x="0px" y="0px" viewBox="0 0 1079.8 360.8" style="enable-background:new 0 0 1079.8 360.8;" xml:space="preserve">
<style type="text/css">
	.st0{fill:#FFFFFF;}
</style>
<g>
	<path class="st0" d="M0,360.8C0,240.5,0,120.3,0,0c359.9,0,719.9,0,1079.8,0c0,120.3,0,240.5,0,360.8   C719.9,360.8,359.9,360.8,0,360.8z M334.5,177.3c-0.5-0.2-1-0.4-1.6-0.6c-0.1-1.9-0.3-3.8-0.4-5.8c-0.1-5.1-2.5-8.1-7.9-8.1   c-14.1,0.1-28.2-0.2-42.3,0.3c-11.9,0.4-18.6,7.8-18.9,19.8c-0.2,7.8,0,15.5,0.1,23.3c0.2,12.3,7.4,20.2,19.7,20.4   c21.3,0.3,42.5,0.6,63.8,0c30.7-1,48.1-33.6,32.4-60c-2.6-4.4-5.8-8.4-8.8-12.5c3.4-5,7-9.7,10-14.8c14-24.2-3.2-56.9-31.1-58   c-22.7-0.9-45.4-0.4-68.1-0.1c-10.1,0.1-17.6,8.2-17.9,18.2c-0.2,8.6-0.3,17.2-0.2,25.8c0.1,11.2,7.5,19.1,18.7,19.4   c14.3,0.3,28.6,0.1,42.9,0.1c4.9,0,7.6-2.4,7.8-7.4c0.1-2.1,0.5-4.2,0.7-6.3c0.5-0.2,1-0.3,1.5-0.5c5.2,7.2,10.5,14.4,15.6,21.6   c0.5,0.6,0.4,2.2,0,2.8C345.4,162.4,339.9,169.8,334.5,177.3z M904.8,188c19.7,0,38.9,0,59,0c-0.6-7-0.7-13.1-1.6-19.1   c-2.7-16.9-11.9-26.8-26.9-29.3c-17-2.9-33,4.3-40.5,18.7c-8.2,15.6-8.3,31.8-1.9,48c3.7,9.4,10.8,16,20.2,19.3   c13.6,4.8,27.4,3.9,40.9-0.4c1.3-0.4,2.9-2.8,2.9-4.2c0-3-1-5.9-1.4-8.3c-8.1,0.9-15.7,2.5-23.3,2.4   C914.8,215,906.6,206.9,904.8,188z M487.9,183.1c-0.2-2.7-0.3-5.6-0.8-8.4c-2.9-16.2-10.8-28.8-27.3-33.7   c-15.5-4.7-30.2-2-40.9,10.5c-13.7,15.9-14.9,34.6-7.3,53.5c9,22.3,35.7,31,56.3,18.5C483,214.5,487.6,199.8,487.9,183.1z    M789.2,228.9c14.6-0.3,26.8-8.4,33.4-23.9c6-14.1,5.8-28.7-0.5-42.9c-11-24.9-44.9-31.5-63.5-11.7c-14.4,15.4-15.6,34.1-8.8,53.3   C755.6,219.9,769.6,229,789.2,228.9z M180.8,176.6c-2.8-0.4-5.1-0.8-7.5-1.2c-10.1-1.4-20.1-0.7-29.5,3.5   c-10.1,4.5-14.9,12.9-14.2,24.2c0.7,12.1,6.1,19.8,16.8,23.1c15.8,4.8,31.6,1.7,47.4-0.6c1-0.1,2.3-2.7,2.3-4.1   c0.1-18,0.5-36-0.1-54c-0.6-17-10.3-26.7-27.3-28c-6.3-0.5-12.7,0-18.9,0.8c-12,1.6-12,1.8-9.6,13.6c0.1,0.3,0.5,0.6,0.6,0.7   c6.4-0.8,12.7-1.9,18.9-2.2C175.4,151.7,182.6,159.8,180.8,176.6z M562.1,214.9c-7.2,0-13.7,0.3-20.1-0.1   c-9.3-0.6-14.7-5.3-16.6-14.4c-1-4.8-1.4-9.7-1.4-14.6c-0.2-14.7-0.1-29.3-0.1-44.3c-5.4,0-10.1,0-14.4,0c0,20.5-1.2,40.6,0.4,60.4   c1.3,16.6,12.8,25.9,29.6,26.2c10.9,0.2,21.9-1.8,32.9-2.7c4.4-0.4,5.6-2.5,5.5-6.9c-0.2-23.9-0.1-47.8-0.1-71.8   c0-1.8-0.3-3.5-0.4-5.2c-5.3,0-10.1,0-15.2,0C562.1,165.9,562.1,189.3,562.1,214.9z M724.2,154.2c0.5-1.9,1-4.7,1.8-7.4   c0.9-3.1-0.2-4.9-3.3-5.1c-9.7-0.6-19.6-2.3-29.1-1.3c-12.3,1.3-20.2,10-21.2,20.5c-1.1,11.7,4.1,19.7,16.4,25c6,2.6,12,5.1,17.9,8   c2.5,1.2,5.1,2.9,6.9,5c5.1,6.3,1.7,14.3-6.8,16c-11.1,2.3-21.9,0.5-32.8-3.9c-0.8,3.4-1.4,6.4-2.3,9.2c-1,3.2,0.4,4.4,3.2,5.3   c12.8,4,25.8,4.7,38.7,1.2c10.7-2.8,16.7-9.6,17.6-18.9c1.2-11.8-3-19.8-13.7-24.9c-7-3.4-14.3-6-21.4-9.2   c-5.4-2.4-9.4-6.1-8.4-12.7c1.1-6.5,6.5-8.6,11.8-8.6C707.5,152.3,715.4,153.4,724.2,154.2z M597.6,223.3   c12.2,6.7,36.1,7.3,47.9,1.4c7.8-3.9,11.9-10.1,12.3-19c0.4-10.6-4-18.2-13.5-22.7c-7.8-3.6-15.8-6.8-23.6-10.4   c-4.7-2.2-7.1-6.1-6.5-11.4c0.6-5.4,4.6-7.6,9.2-8.5c3.4-0.7,6.9-1,10.3-0.7c5.4,0.6,10.8,1.8,16.7,2.9c0.7-2.9,1.8-6,2.1-9.2   c0.1-1.2-1.3-3.5-2.5-3.8c-11.4-3-23-4.7-34.4-0.7c-9.6,3.3-16,9.7-16.8,20.5c-0.7,10.7,4.1,18.3,14.6,23.2c3.1,1.5,6.5,2.6,9.6,4   c4.5,2,8.9,4,13.2,6.4c4.6,2.5,6.7,6.5,5.8,11.8c-0.9,5.1-4.7,7-9.2,7.7c-4,0.6-8.2,1.2-12.2,0.7c-6.8-0.8-13.5-2.4-20.6-3.8   C599.3,215.5,598.5,219.5,597.6,223.3z M848,101.7c0,36-0.3,71.1,0.2,106.3c0.2,14,10.4,21.3,25.8,19.7c0.6-3.8,1.3-7.7,1.9-11.5   c-11.8-3.8-12.7-4.9-12.7-17.2c0-30.7,0-61.4,0-92c0-2.4,0-4.7,0-7.8C857.6,100.1,853.1,100.8,848,101.7z M118.2,216.2   c-11.9-3.9-12.7-5.1-12.7-16.9c0-30.9,0-61.7,0-92.6c0-2.3,0-4.6,0-7.5c-4.1,0.6-7.1,1.3-10.1,1.5c-4.2,0.3-5.4,2.3-5.3,6.3   c0.3,7.3,0.1,14.7,0.1,22.1c0.1,26.2-0.3,52.3,0.4,78.5c0.4,14.8,10.3,22,25.7,20C116.9,224,117.6,220.2,118.2,216.2z"/>
	<path d="M334.5,177.3c5.4-7.5,10.9-15,16.2-22.5c0.5-0.7,0.5-2.2,0-2.8c-5.1-7.3-10.4-14.4-15.6-21.6c-0.5,0.2-1,0.3-1.5,0.5   c-0.2,2.1-0.6,4.2-0.7,6.3c-0.2,5.1-2.9,7.4-7.8,7.4c-14.3,0-28.6,0.3-42.9-0.1c-11.2-0.3-18.5-8.1-18.7-19.4   c-0.1-8.6,0-17.2,0.2-25.8c0.2-10,7.7-18.1,17.9-18.2c22.7-0.3,45.4-0.8,68.1,0.1c28,1.1,45.2,33.8,31.1,58c-3,5.1-6.6,9.8-10,14.8   c2.9,4.2,6.2,8.1,8.8,12.5c15.7,26.5-1.7,59-32.4,60c-21.2,0.7-42.5,0.4-63.8,0c-12.3-0.2-19.5-8.1-19.7-20.4   c-0.1-7.8-0.3-15.5-0.1-23.3c0.3-12,7-19.4,18.9-19.8c14.1-0.5,28.2-0.3,42.3-0.3c5.4,0,7.7,2.9,7.9,8.1c0.1,1.9,0.3,3.8,0.4,5.8   C333.5,176.9,334,177.1,334.5,177.3z M361.2,165.3c-5.1,6.9-9.8,13.3-14.6,19.6c-3.9,5.2-9.2,7.2-15.6,6.4   c-6.2-0.8-9.5-4.7-11.7-10.3c-0.7-1.7-3.1-3.8-4.7-3.8c-10-0.3-20,0-30,0c-5.3,0-7.2,2.7-7.2,7.7c0.1,6.7,0.1,13.5,0,20.2   c-0.1,5.5,2.4,7.7,7.8,7.7c20.6-0.2,41.2,0,61.9-0.4c12.6-0.2,21.2-8.3,23.9-20.6C373.3,180.9,367.6,173.5,361.2,165.3z    M361.7,142.2c2.9-4.5,5.7-8,7.6-12c7-14.6-4.4-34.5-20.4-34.9c-21.6-0.5-43.3-0.1-64.9-0.2c-4.4,0-6.4,2.1-6.4,6.3   c0,7.3,0,14.7-0.1,22c-0.1,4.9,2.3,7.1,7.1,7c10.2-0.1,20.4,0.2,30.6-0.2c1.7-0.1,4.3-2.1,4.9-3.7c2-5.5,5.3-9.2,11.2-10.1   c6.4-1,11.7,0.8,15.7,6.1C351.6,128.8,356.2,134.9,361.7,142.2z"/>
	<path d="M904.8,188c1.8,18.9,10.1,27,27.3,27.1c7.6,0,15.3-1.5,23.3-2.4c0.5,2.4,1.4,5.4,1.4,8.3c0,1.5-1.5,3.8-2.9,4.2   c-13.5,4.4-27.3,5.3-40.9,0.4c-9.5-3.4-16.5-9.9-20.2-19.3c-6.4-16.2-6.2-32.4,1.9-48c7.5-14.4,23.5-21.6,40.5-18.7   c14.9,2.5,24.2,12.4,26.9,29.3c0.9,6,1.1,12.1,1.6,19.1C943.7,188,924.4,188,904.8,188z M947,175.4c0.5-13.7-7.6-23.3-19.4-23.3   c-12.3-0.1-22.2,10.3-21.8,23.3C919.3,175.4,932.9,175.4,947,175.4z"/>
	<path d="M487.9,183.1c-0.3,16.7-4.9,31.4-20,40.4c-20.6,12.4-47.3,3.8-56.3-18.5c-7.6-18.9-6.4-37.7,7.3-53.5   c10.7-12.5,25.4-15.2,40.9-10.5c16.5,5,24.4,17.5,27.3,33.7C487.6,177.5,487.7,180.4,487.9,183.1z M472.7,185.1   c-1.3-6.1-1.8-12.1-3.9-17.5c-3.5-9.4-10.4-14.9-20.9-15c-10.4-0.1-17.5,5.1-21.3,14.4c-4.6,11.2-4.4,22.7,0,34   c3.7,9.3,10.7,14.1,20.8,14.3c9.8,0.2,17-4.5,20.8-13.3C470.4,196.7,471.2,190.8,472.7,185.1z"/>
	<path d="M789.2,228.9c-19.6,0.1-33.6-9-39.4-25.2c-6.7-19.2-5.6-37.9,8.8-53.3c18.6-19.8,52.5-13.2,63.5,11.7   c6.2,14.1,6.5,28.7,0.5,42.9C816.1,220.5,803.8,228.6,789.2,228.9z M761.4,184.2c1.4,5.8,2.2,11.7,4.3,17.1   c3.4,9.1,10.5,13.8,20.3,14c9.8,0.3,17-4.2,21-13.1c5.5-12.4,5.6-25.1-0.4-37.3c-4.2-8.7-11.6-13-21.4-12.4   c-9.8,0.6-16.5,5.7-19.8,14.8C763.4,172.7,762.7,178.4,761.4,184.2z"/>
	<path d="M180.8,176.6c1.7-16.8-5.5-24.9-21.1-24.3c-6.3,0.3-12.5,1.4-18.9,2.2c-0.1-0.1-0.6-0.4-0.6-0.7c-2.4-11.8-2.4-12,9.6-13.6   c6.2-0.8,12.7-1.3,18.9-0.8c17,1.3,26.7,11,27.3,28c0.6,18,0.2,36,0.1,54c0,1.4-1.4,3.9-2.3,4.1c-15.8,2.3-31.6,5.5-47.4,0.6   c-10.7-3.3-16.1-11-16.8-23.1c-0.6-11.3,4.1-19.7,14.2-24.2c9.4-4.2,19.3-4.9,29.5-3.5C175.7,175.8,178.1,176.2,180.8,176.6z    M181.4,202.3c0-3.3,0.3-6.6-0.1-9.8c-0.2-1.5-1.4-3.8-2.6-4c-8.7-1.9-17.5-2.5-25.9,1.2c-5.6,2.5-8.4,6.9-7.8,13.2   c0.6,6.2,3.9,10.3,10,11.6c4.2,0.9,8.5,1.2,12.8,1.2C181.4,215.8,181.4,215.7,181.4,202.3z"/>
	<path d="M562.1,214.9c0-25.6,0-49.1,0-73.2c5.1,0,9.9,0,15.2,0c0.1,1.6,0.4,3.4,0.4,5.2c0,23.9-0.1,47.8,0.1,71.8   c0,4.3-1.2,6.5-5.5,6.9c-11,0.9-21.9,2.9-32.9,2.7c-16.8-0.3-28.2-9.6-29.6-26.2c-1.6-19.8-0.4-39.9-0.4-60.4c4.2,0,8.9,0,14.4,0   c0,14.9-0.1,29.6,0.1,44.3c0.1,4.9,0.4,9.8,1.4,14.6c1.9,9.1,7.4,13.8,16.6,14.4C548.5,215.3,555,214.9,562.1,214.9z"/>
	<path d="M724.2,154.2c-8.9-0.7-16.8-1.9-24.6-1.8c-5.3,0.1-10.8,2.1-11.8,8.6c-1.1,6.6,2.9,10.3,8.4,12.7   c7.1,3.2,14.4,5.8,21.4,9.2c10.7,5.2,14.9,13.2,13.7,24.9c-0.9,9.2-6.9,16-17.6,18.9c-13,3.4-25.9,2.7-38.7-1.2   c-2.8-0.9-4.2-2.1-3.2-5.3c0.9-2.9,1.5-5.9,2.3-9.2c10.9,4.4,21.7,6.2,32.8,3.9c8.6-1.8,12-9.8,6.8-16c-1.7-2.1-4.3-3.8-6.9-5   c-5.9-2.9-11.9-5.4-17.9-8c-12.3-5.3-17.6-13.3-16.4-25c1-10.5,8.9-19.2,21.2-20.5c9.6-1,19.4,0.7,29.1,1.3c3,0.2,4.2,2,3.3,5.1   C725.2,149.5,724.7,152.2,724.2,154.2z"/>
	<path d="M597.6,223.3c0.8-3.8,1.7-7.8,2.5-11.5c7.1,1.3,13.8,3,20.6,3.8c4,0.5,8.2-0.1,12.2-0.7c4.5-0.7,8.3-2.6,9.2-7.7   c0.9-5.3-1.2-9.3-5.8-11.8c-4.3-2.4-8.8-4.4-13.2-6.4c-3.2-1.4-6.5-2.5-9.6-4c-10.5-4.9-15.3-12.5-14.6-23.2   c0.7-10.8,7.2-17.2,16.8-20.5c11.4-4,23-2.3,34.4,0.7c1.1,0.3,2.6,2.6,2.5,3.8c-0.3,3.2-1.4,6.3-2.1,9.2   c-5.9-1.1-11.3-2.3-16.7-2.9c-3.4-0.4-7,0-10.3,0.7c-4.6,0.9-8.6,3.1-9.2,8.5c-0.6,5.3,1.8,9.2,6.5,11.4   c7.8,3.6,15.8,6.7,23.6,10.4c9.5,4.4,13.9,12.1,13.5,22.7c-0.3,8.9-4.5,15.1-12.3,19C633.7,230.6,609.9,230,597.6,223.3z"/>
	<path d="M848,101.7c5.1-0.8,9.6-1.6,15.2-2.6c0,3.1,0,5.4,0,7.8c0,30.7,0,61.4,0,92c0,12.3,0.8,13.4,12.7,17.2   c-0.6,3.8-1.3,7.8-1.9,11.5c-15.4,1.5-25.6-5.8-25.8-19.7C847.7,172.8,848,137.7,848,101.7z"/>
	<path d="M118.2,216.2c-0.7,4-1.3,7.8-1.9,11.4c-15.4,2-25.3-5.2-25.7-20c-0.7-26.1-0.3-52.3-0.4-78.5c0-7.4,0.2-14.7-0.1-22.1   c-0.2-4,1.1-6.1,5.3-6.3c3-0.2,6-0.9,10.1-1.5c0,2.9,0,5.2,0,7.5c0,30.9,0,61.7,0,92.6C105.5,211.2,106.4,212.3,118.2,216.2z"/>
	<path class="st0" d="M361.2,165.3c6.4,8.2,12.1,15.6,9.7,26.4c-2.7,12.3-11.3,20.4-23.9,20.6c-20.6,0.4-41.2,0.2-61.9,0.4   c-5.4,0-7.9-2.2-7.8-7.7c0.2-6.7,0.1-13.5,0-20.2c-0.1-5,1.9-7.7,7.2-7.7c10,0,20-0.3,30,0c1.7,0.1,4.1,2.1,4.7,3.8   c2.2,5.6,5.5,9.5,11.7,10.3c6.4,0.8,11.7-1.2,15.6-6.4C351.4,178.5,356.1,172.2,361.2,165.3z"/>
	<path class="st0" d="M361.7,142.2c-5.5-7.2-10.1-13.4-14.8-19.6c-4-5.2-9.3-7-15.7-6.1c-5.9,0.9-9.1,4.6-11.2,10.1   c-0.6,1.7-3.2,3.7-4.9,3.7c-10.2,0.4-20.4,0.1-30.6,0.2c-4.8,0-7.2-2.1-7.1-7c0.1-7.3,0.1-14.7,0.1-22c0-4.2,2-6.3,6.4-6.3   c21.6,0.1,43.3-0.3,64.9,0.2c16,0.4,27.5,20.3,20.4,34.9C367.4,134.2,364.6,137.7,361.7,142.2z"/>
	<path class="st0" d="M947,175.4c-14,0-27.6,0-41.2,0c-0.3-13.1,9.5-23.4,21.8-23.3C939.3,152.1,947.5,161.6,947,175.4z"/>
	<path class="st0" d="M472.7,185.1c-1.5,5.7-2.3,11.7-4.6,17c-3.8,8.8-10.9,13.5-20.8,13.3c-10-0.2-17.1-5-20.8-14.3   c-4.4-11.3-4.6-22.8,0-34c3.8-9.4,10.9-14.5,21.3-14.4c10.5,0.1,17.4,5.6,20.9,15C470.8,173,471.4,179,472.7,185.1z"/>
	<path class="st0" d="M761.4,184.2c1.3-5.8,2.1-11.6,4-16.8c3.3-9,10-14.2,19.8-14.8c9.8-0.6,17.2,3.7,21.4,12.4   c5.9,12.2,5.9,24.9,0.4,37.3c-3.9,8.8-11.1,13.3-21,13.1c-9.8-0.3-16.9-5-20.3-14C763.6,195.9,762.8,190,761.4,184.2z"/>
	<path class="st0" d="M181.4,202.3c0,13.4,0,13.5-13.6,13.4c-4.3,0-8.6-0.3-12.8-1.2c-6.1-1.3-9.4-5.4-10-11.6   c-0.6-6.3,2.2-10.8,7.8-13.2c8.4-3.7,17.2-3.1,25.9-1.2c1.1,0.3,2.4,2.5,2.6,4C181.7,195.7,181.4,199,181.4,202.3z"/>
</g>
</svg>